<svg width="20" height="20" viewBox="0 0 20 20" fill="none" xmlns="http://www.w3.org/2000/svg">
<path d="M0 10C0 4.47715 4.47715 0 10 0C15.5228 0 20 4.47715 20 10C20 15.5228 15.5228 20 10 20C4.47715 20 0 15.5228 0 10Z" fill="#FFB900"/>
<g clip-path="url(#clip0_1_196)">
<path d="M14.9005 8.99999C15.1289 10.1206 14.9662 11.2857 14.4395 12.3009C13.9128 13.3161 13.054 14.12 12.0063 14.5787C10.9586 15.0373 9.78536 15.1229 8.6822 14.8212C7.57904 14.5195 6.61265 13.8487 5.94419 12.9207C5.27573 11.9927 4.94561 10.8636 5.00888 9.72169C5.07215 8.57976 5.52499 7.49404 6.29188 6.64558C7.05876 5.79712 8.09334 5.23721 9.22308 5.05922C10.3528 4.88123 11.5094 5.09592 12.5 5.66749" stroke="#82181A" stroke-linecap="round" stroke-linejoin="round"/>
<path d="M8.5 9.5L10 11L15 6" stroke="#82181A" stroke-linecap="round" stroke-linejoin="round"/>
</g>
<defs>
<clipPath id="clip0_1_196">
<rect width="12" height="12" fill="white" transform="translate(4 4)"/>
</clipPath>
</defs>
</svg>
