<svg width="14" height="14" viewBox="0 0 14 14" fill="none" xmlns="http://www.w3.org/2000/svg">
<g clip-path="url(#clip0_1_777)">
<path d="M4.66667 1.16675V3.50008" stroke="#C10007" stroke-width="1.16667" stroke-linecap="round" stroke-linejoin="round"/>
<path d="M9.33333 1.16675V3.50008" stroke="#C10007" stroke-width="1.16667" stroke-linecap="round" stroke-linejoin="round"/>
<path d="M11.0833 2.33325H2.91667C2.27233 2.33325 1.75 2.85559 1.75 3.49992V11.6666C1.75 12.3109 2.27233 12.8333 2.91667 12.8333H11.0833C11.7277 12.8333 12.25 12.3109 12.25 11.6666V3.49992C12.25 2.85559 11.7277 2.33325 11.0833 2.33325Z" stroke="#C10007" stroke-width="1.16667" stroke-linecap="round" stroke-linejoin="round"/>
<path d="M1.75 5.83325H12.25" stroke="#C10007" stroke-width="1.16667" stroke-linecap="round" stroke-linejoin="round"/>
<path d="M4.66667 8.16675H4.6725" stroke="#C10007" stroke-width="1.16667" stroke-linecap="round" stroke-linejoin="round"/>
<path d="M7 8.16675H7.00583" stroke="#C10007" stroke-width="1.16667" stroke-linecap="round" stroke-linejoin="round"/>
<path d="M9.33333 8.16675H9.33917" stroke="#C10007" stroke-width="1.16667" stroke-linecap="round" stroke-linejoin="round"/>
<path d="M4.66667 10.5H4.6725" stroke="#C10007" stroke-width="1.16667" stroke-linecap="round" stroke-linejoin="round"/>
<path d="M7 10.5H7.00583" stroke="#C10007" stroke-width="1.16667" stroke-linecap="round" stroke-linejoin="round"/>
<path d="M9.33333 10.5H9.33917" stroke="#C10007" stroke-width="1.16667" stroke-linecap="round" stroke-linejoin="round"/>
</g>
<defs>
<clipPath id="clip0_1_777">
<rect width="14" height="14" fill="white"/>
</clipPath>
</defs>
</svg>
