<svg width="14" height="14" viewBox="0 0 14 14" fill="none" xmlns="http://www.w3.org/2000/svg">
<g clip-path="url(#clip0_1_791)">
<path d="M11.6667 5.83341C11.6667 8.746 8.43558 11.7793 7.35058 12.7162C7.2495 12.7922 7.12646 12.8333 7 12.8333C6.87353 12.8333 6.75049 12.7922 6.64942 12.7162C5.56442 11.7793 2.33333 8.746 2.33333 5.83341C2.33333 4.59574 2.825 3.40875 3.70017 2.53358C4.57534 1.65841 5.76232 1.16675 7 1.16675C8.23768 1.16675 9.42466 1.65841 10.2998 2.53358C11.175 3.40875 11.6667 4.59574 11.6667 5.83341Z" stroke="#FF2056" stroke-width="1.16667" stroke-linecap="round" stroke-linejoin="round"/>
<path d="M7 7.58325C7.9665 7.58325 8.75 6.79975 8.75 5.83325C8.75 4.86675 7.9665 4.08325 7 4.08325C6.0335 4.08325 5.25 4.86675 5.25 5.83325C5.25 6.79975 6.0335 7.58325 7 7.58325Z" stroke="#FF2056" stroke-width="1.16667" stroke-linecap="round" stroke-linejoin="round"/>
</g>
<defs>
<clipPath id="clip0_1_791">
<rect width="14" height="14" fill="white"/>
</clipPath>
</defs>
</svg>
