<svg width="20" height="20" viewBox="0 0 20 20" fill="none" xmlns="http://www.w3.org/2000/svg">
<g clip-path="url(#clip0_1_678)">
<path d="M6.66669 1.66675V5.00008" stroke="#FFA2A2" stroke-width="1.66667" stroke-linecap="round" stroke-linejoin="round"/>
<path d="M13.3333 1.66675V5.00008" stroke="#FFA2A2" stroke-width="1.66667" stroke-linecap="round" stroke-linejoin="round"/>
<path d="M15.8333 3.33325H4.16667C3.24619 3.33325 2.5 4.07944 2.5 4.99992V16.6666C2.5 17.5871 3.24619 18.3333 4.16667 18.3333H15.8333C16.7538 18.3333 17.5 17.5871 17.5 16.6666V4.99992C17.5 4.07944 16.7538 3.33325 15.8333 3.33325Z" stroke="#FFA2A2" stroke-width="1.66667" stroke-linecap="round" stroke-linejoin="round"/>
<path d="M2.5 8.33325H17.5" stroke="#FFA2A2" stroke-width="1.66667" stroke-linecap="round" stroke-linejoin="round"/>
<path d="M6.66669 11.6667H6.67502" stroke="#FFA2A2" stroke-width="1.66667" stroke-linecap="round" stroke-linejoin="round"/>
<path d="M10 11.6667H10.0083" stroke="#FFA2A2" stroke-width="1.66667" stroke-linecap="round" stroke-linejoin="round"/>
<path d="M13.3333 11.6667H13.3416" stroke="#FFA2A2" stroke-width="1.66667" stroke-linecap="round" stroke-linejoin="round"/>
<path d="M6.66669 15H6.67502" stroke="#FFA2A2" stroke-width="1.66667" stroke-linecap="round" stroke-linejoin="round"/>
<path d="M10 15H10.0083" stroke="#FFA2A2" stroke-width="1.66667" stroke-linecap="round" stroke-linejoin="round"/>
<path d="M13.3333 15H13.3416" stroke="#FFA2A2" stroke-width="1.66667" stroke-linecap="round" stroke-linejoin="round"/>
</g>
<defs>
<clipPath id="clip0_1_678">
<rect width="20" height="20" fill="white"/>
</clipPath>
</defs>
</svg>
